<?xml version="1.0" encoding="UTF-8" standalone="no"?><!DOCTYPE svg PUBLIC "-//W3C//DTD SVG 1.1//EN" "http://www.w3.org/Graphics/SVG/1.1/DTD/svg11.dtd"><svg width="100%" height="100%" viewBox="0 0 1130 2313" version="1.1" xmlns="http://www.w3.org/2000/svg" xmlns:xlink="http://www.w3.org/1999/xlink" xml:space="preserve" xmlns:serif="http://www.serif.com/" style="fill-rule:evenodd;clip-rule:evenodd;stroke-linejoin:round;stroke-miterlimit:2;"><path id="Rectangle-1" serif:id="Rectangle 1" d="M1129.15,129.167c-0,-71.289 -57.878,-129.167 -129.167,-129.167l-866.674,-0c-71.289,-0 -129.167,57.878 -129.167,129.167l0,1595.76c0,71.289 57.878,129.167 129.167,129.167l866.674,0c71.289,0 129.167,-57.878 129.167,-129.167l-0,-1595.76Z" style="fill:#e3ab1b;"/><text id="Brasil-copy-6" serif:id="Brasil copy 6" x="110.908px" y="1165.69px" style="font-family:'AbrilFatface-Regular', 'Abril Fatface';font-size:677.334px;fill:#d8d2c6;">PR</text><path id="Shape-1-copy" serif:id="Shape 1 copy" d="M1129.16,1320.79l-0,991.665l-604.3,-466.663l604.3,-525.002Z" style="fill:#e3ab1b;"/><path id="Shape-1" serif:id="Shape 1" d="M-0,1320.79l-0,991.665l604.304,-466.663l-604.304,-525.002Z" style="fill:#e3ab1b;"/><g id="Brasil-copy-4" serif:id="Brasil copy 4" transform="matrix(1,-8.27141e-17,4.98589e-16,0.999925,-7.95808e-13,0.12324)"><text x="273.469px" y="1634.14px" style="font-family:'AbrilFatface-Regular', 'Abril Fatface';font-size:380.922px;fill:#d8d2c6;">S<tspan x="498.213px " y="1634.14px ">u</tspan>l</text></g><rect id="Rectangle-5-copy-2" serif:id="Rectangle 5 copy 2" x="4.174" y="429.13" width="1125" height="54.167" style="fill:#232323;"/></svg>